<svg width="212" height="82" viewBox="0 0 212 82" fill="none" xmlns="http://www.w3.org/2000/svg">
<g filter="url(#filter0_d_1_19)">
<rect x="15" y="11" width="182" height="52" rx="26" fill="#3A86FF" shape-rendering="crispEdges"/>
<path d="M54.578 43.18C53.594 43.18 52.688 43.024 51.86 42.712C51.044 42.388 50.33 41.938 49.718 41.362C49.106 40.774 48.632 40.084 48.296 39.292C47.96 38.5 47.792 37.636 47.792 36.7C47.792 35.764 47.96 34.9 48.296 34.108C48.632 33.316 49.106 32.632 49.718 32.056C50.342 31.468 51.068 31.018 51.896 30.706C52.724 30.382 53.63 30.22 54.614 30.22C55.682 30.22 56.642 30.394 57.494 30.742C58.358 31.09 59.084 31.6 59.672 32.272L58.196 33.712C57.704 33.22 57.17 32.86 56.594 32.632C56.03 32.392 55.406 32.272 54.722 32.272C54.062 32.272 53.45 32.38 52.886 32.596C52.322 32.812 51.836 33.118 51.428 33.514C51.02 33.91 50.702 34.378 50.474 34.918C50.258 35.458 50.15 36.052 50.15 36.7C50.15 37.336 50.258 37.924 50.474 38.464C50.702 39.004 51.02 39.478 51.428 39.886C51.836 40.282 52.316 40.588 52.868 40.804C53.42 41.02 54.032 41.128 54.704 41.128C55.328 41.128 55.928 41.032 56.504 40.84C57.092 40.636 57.65 40.3 58.178 39.832L59.51 41.578C58.85 42.106 58.082 42.508 57.206 42.784C56.342 43.048 55.466 43.18 54.578 43.18ZM57.296 41.272V36.556H59.51V41.578L57.296 41.272ZM66.8983 43.126C65.8303 43.126 64.8943 42.916 64.0903 42.496C63.2983 42.064 62.6803 41.476 62.2363 40.732C61.8043 39.988 61.5883 39.142 61.5883 38.194C61.5883 37.234 61.7983 36.388 62.2183 35.656C62.6503 34.912 63.2383 34.33 63.9823 33.91C64.7383 33.49 65.5963 33.28 66.5563 33.28C67.4923 33.28 68.3263 33.484 69.0583 33.892C69.7903 34.3 70.3663 34.876 70.7863 35.62C71.2063 36.364 71.4163 37.24 71.4163 38.248C71.4163 38.344 71.4103 38.452 71.3983 38.572C71.3983 38.692 71.3923 38.806 71.3803 38.914H63.3703V37.42H70.1923L69.3103 37.888C69.3223 37.336 69.2083 36.85 68.9683 36.43C68.7283 36.01 68.3983 35.68 67.9783 35.44C67.5703 35.2 67.0963 35.08 66.5563 35.08C66.0043 35.08 65.5183 35.2 65.0983 35.44C64.6903 35.68 64.3663 36.016 64.1263 36.448C63.8983 36.868 63.7843 37.366 63.7843 37.942V38.302C63.7843 38.878 63.9163 39.388 64.1803 39.832C64.4443 40.276 64.8163 40.618 65.2963 40.858C65.7763 41.098 66.3283 41.218 66.9523 41.218C67.4923 41.218 67.9783 41.134 68.4103 40.966C68.8423 40.798 69.2263 40.534 69.5623 40.174L70.7683 41.56C70.3363 42.064 69.7903 42.454 69.1303 42.73C68.4823 42.994 67.7383 43.126 66.8983 43.126ZM77.1956 43.126C76.1396 43.126 75.3236 42.856 74.7476 42.316C74.1716 41.764 73.8836 40.954 73.8836 39.886V31.264H76.1336V39.832C76.1336 40.288 76.2476 40.642 76.4756 40.894C76.7156 41.146 77.0456 41.272 77.4656 41.272C77.9696 41.272 78.3896 41.14 78.7256 40.876L79.3556 42.478C79.0916 42.694 78.7676 42.856 78.3836 42.964C77.9996 43.072 77.6036 43.126 77.1956 43.126ZM72.2996 35.26V33.46H78.7076V35.26H72.2996ZM86.1811 43V33.388H88.4311V43H86.1811ZM87.3151 31.804C86.8951 31.804 86.5471 31.672 86.2711 31.408C86.0071 31.144 85.8751 30.826 85.8751 30.454C85.8751 30.07 86.0071 29.752 86.2711 29.5C86.5471 29.236 86.8951 29.104 87.3151 29.104C87.7351 29.104 88.0771 29.23 88.3411 29.482C88.6171 29.722 88.7551 30.028 88.7551 30.4C88.7551 30.796 88.6231 31.132 88.3591 31.408C88.0951 31.672 87.7471 31.804 87.3151 31.804ZM96.8382 33.28C97.6062 33.28 98.2902 33.43 98.8902 33.73C99.5022 34.03 99.9822 34.492 100.33 35.116C100.678 35.728 100.852 36.52 100.852 37.492V43H98.6022V37.78C98.6022 36.928 98.3982 36.292 97.9902 35.872C97.5942 35.452 97.0362 35.242 96.3162 35.242C95.7882 35.242 95.3202 35.35 94.9122 35.566C94.5042 35.782 94.1862 36.106 93.9582 36.538C93.7422 36.958 93.6342 37.492 93.6342 38.14V43H91.3842V33.388H93.5262V35.98L93.1482 35.188C93.4842 34.576 93.9702 34.108 94.6062 33.784C95.2542 33.448 95.9982 33.28 96.8382 33.28ZM112.299 43.126C111.243 43.126 110.427 42.856 109.851 42.316C109.275 41.764 108.987 40.954 108.987 39.886V31.264H111.237V39.832C111.237 40.288 111.351 40.642 111.579 40.894C111.819 41.146 112.149 41.272 112.569 41.272C113.073 41.272 113.493 41.14 113.829 40.876L114.459 42.478C114.195 42.694 113.871 42.856 113.487 42.964C113.103 43.072 112.707 43.126 112.299 43.126ZM107.403 35.26V33.46H113.811V35.26H107.403ZM120.314 43.126C119.33 43.126 118.454 42.916 117.686 42.496C116.918 42.064 116.312 41.476 115.868 40.732C115.424 39.988 115.202 39.142 115.202 38.194C115.202 37.234 115.424 36.388 115.868 35.656C116.312 34.912 116.918 34.33 117.686 33.91C118.454 33.49 119.33 33.28 120.314 33.28C121.31 33.28 122.192 33.49 122.96 33.91C123.74 34.33 124.346 34.906 124.778 35.638C125.222 36.37 125.444 37.222 125.444 38.194C125.444 39.142 125.222 39.988 124.778 40.732C124.346 41.476 123.74 42.064 122.96 42.496C122.192 42.916 121.31 43.126 120.314 43.126ZM120.314 41.2C120.866 41.2 121.358 41.08 121.79 40.84C122.222 40.6 122.558 40.252 122.798 39.796C123.05 39.34 123.176 38.806 123.176 38.194C123.176 37.57 123.05 37.036 122.798 36.592C122.558 36.136 122.222 35.788 121.79 35.548C121.358 35.308 120.872 35.188 120.332 35.188C119.78 35.188 119.288 35.308 118.856 35.548C118.436 35.788 118.1 36.136 117.848 36.592C117.596 37.036 117.47 37.57 117.47 38.194C117.47 38.806 117.596 39.34 117.848 39.796C118.1 40.252 118.436 40.6 118.856 40.84C119.288 41.08 119.774 41.2 120.314 41.2ZM131.663 43.126C130.847 43.126 130.127 42.976 129.503 42.676C128.879 42.364 128.393 41.896 128.045 41.272C127.697 40.636 127.523 39.838 127.523 38.878V33.388H129.773V38.572C129.773 39.436 129.965 40.084 130.349 40.516C130.745 40.936 131.303 41.146 132.023 41.146C132.551 41.146 133.007 41.038 133.391 40.822C133.787 40.606 134.093 40.282 134.309 39.85C134.537 39.418 134.651 38.884 134.651 38.248V33.388H136.901V43H134.759V40.408L135.137 41.2C134.813 41.824 134.339 42.304 133.715 42.64C133.091 42.964 132.407 43.126 131.663 43.126ZM144.257 43.126C143.249 43.126 142.349 42.916 141.557 42.496C140.777 42.064 140.165 41.476 139.721 40.732C139.277 39.988 139.055 39.142 139.055 38.194C139.055 37.234 139.277 36.388 139.721 35.656C140.165 34.912 140.777 34.33 141.557 33.91C142.349 33.49 143.249 33.28 144.257 33.28C145.193 33.28 146.015 33.472 146.723 33.856C147.443 34.228 147.989 34.78 148.361 35.512L146.633 36.52C146.345 36.064 145.991 35.728 145.571 35.512C145.163 35.296 144.719 35.188 144.239 35.188C143.687 35.188 143.189 35.308 142.745 35.548C142.301 35.788 141.953 36.136 141.701 36.592C141.449 37.036 141.323 37.57 141.323 38.194C141.323 38.818 141.449 39.358 141.701 39.814C141.953 40.258 142.301 40.6 142.745 40.84C143.189 41.08 143.687 41.2 144.239 41.2C144.719 41.2 145.163 41.092 145.571 40.876C145.991 40.66 146.345 40.324 146.633 39.868L148.361 40.876C147.989 41.596 147.443 42.154 146.723 42.55C146.015 42.934 145.193 43.126 144.257 43.126ZM155.672 33.28C156.44 33.28 157.124 33.43 157.724 33.73C158.336 34.03 158.816 34.492 159.164 35.116C159.512 35.728 159.686 36.52 159.686 37.492V43H157.436V37.78C157.436 36.928 157.232 36.292 156.824 35.872C156.428 35.452 155.87 35.242 155.15 35.242C154.622 35.242 154.154 35.35 153.746 35.566C153.338 35.782 153.02 36.106 152.792 36.538C152.576 36.958 152.468 37.492 152.468 38.14V43H150.218V29.644H152.468V35.98L151.982 35.188C152.318 34.576 152.804 34.108 153.44 33.784C154.088 33.448 154.832 33.28 155.672 33.28Z" fill="white"/>
</g>
<defs>
<filter id="filter0_d_1_19" x="0" y="0" width="212" height="82" filterUnits="userSpaceOnUse" color-interpolation-filters="sRGB">
<feFlood flood-opacity="0" result="BackgroundImageFix"/>
<feColorMatrix in="SourceAlpha" type="matrix" values="0 0 0 0 0 0 0 0 0 0 0 0 0 0 0 0 0 0 127 0" result="hardAlpha"/>
<feOffset dy="4"/>
<feGaussianBlur stdDeviation="7.5"/>
<feComposite in2="hardAlpha" operator="out"/>
<feColorMatrix type="matrix" values="0 0 0 0 0.179167 0 0 0 0 0.179167 0 0 0 0 0.179167 0 0 0 0.15 0"/>
<feBlend mode="normal" in2="BackgroundImageFix" result="effect1_dropShadow_1_19"/>
<feBlend mode="normal" in="SourceGraphic" in2="effect1_dropShadow_1_19" result="shape"/>
</filter>
</defs>
</svg>
