<svg width="252" height="82" viewBox="0 0 252 82" fill="none" xmlns="http://www.w3.org/2000/svg">
<g filter="url(#filter0_d_1_19)">
<rect x="15" y="11" width="222" height="52" rx="26" fill="#3A86FF" shape-rendering="crispEdges"/>
<path d="M52.418 43L46.91 30.4H49.448L54.362 41.794H52.904L57.872 30.4H60.212L54.722 43H52.418ZM61.4311 43V33.388H63.6811V43H61.4311ZM62.5651 31.804C62.1451 31.804 61.7971 31.672 61.5211 31.408C61.2571 31.144 61.1251 30.826 61.1251 30.454C61.1251 30.07 61.2571 29.752 61.5211 29.5C61.7971 29.236 62.1451 29.104 62.5651 29.104C62.9851 29.104 63.3271 29.23 63.5911 29.482C63.8671 29.722 64.0051 30.028 64.0051 30.4C64.0051 30.796 63.8731 31.132 63.6091 31.408C63.3451 31.672 62.9971 31.804 62.5651 31.804ZM69.6042 43.126C68.8002 43.126 68.0262 43.024 67.2822 42.82C66.5502 42.604 65.9682 42.346 65.5362 42.046L66.4002 40.336C66.8322 40.612 67.3482 40.84 67.9482 41.02C68.5482 41.2 69.1482 41.29 69.7482 41.29C70.4562 41.29 70.9662 41.194 71.2782 41.002C71.6022 40.81 71.7642 40.552 71.7642 40.228C71.7642 39.964 71.6562 39.766 71.4402 39.634C71.2242 39.49 70.9422 39.382 70.5942 39.31C70.2462 39.238 69.8562 39.172 69.4242 39.112C69.0042 39.052 68.5782 38.974 68.1462 38.878C67.7262 38.77 67.3422 38.62 66.9942 38.428C66.6462 38.224 66.3642 37.954 66.1482 37.618C65.9322 37.282 65.8242 36.838 65.8242 36.286C65.8242 35.674 65.9982 35.146 66.3462 34.702C66.6942 34.246 67.1802 33.898 67.8042 33.658C68.4402 33.406 69.1902 33.28 70.0542 33.28C70.7022 33.28 71.3562 33.352 72.0162 33.496C72.6762 33.64 73.2222 33.844 73.6542 34.108L72.7902 35.818C72.3342 35.542 71.8722 35.356 71.4042 35.26C70.9482 35.152 70.4922 35.098 70.0362 35.098C69.3522 35.098 68.8422 35.2 68.5062 35.404C68.1822 35.608 68.0202 35.866 68.0202 36.178C68.0202 36.466 68.1282 36.682 68.3442 36.826C68.5602 36.97 68.8422 37.084 69.1902 37.168C69.5382 37.252 69.9222 37.324 70.3422 37.384C70.7742 37.432 71.2002 37.51 71.6202 37.618C72.0402 37.726 72.4242 37.876 72.7722 38.068C73.1322 38.248 73.4202 38.506 73.6362 38.842C73.8522 39.178 73.9602 39.616 73.9602 40.156C73.9602 40.756 73.7802 41.278 73.4202 41.722C73.0722 42.166 72.5742 42.514 71.9262 42.766C71.2782 43.006 70.5042 43.126 69.6042 43.126ZM75.8979 43V33.388H78.1479V43H75.8979ZM77.0319 31.804C76.6119 31.804 76.2639 31.672 75.9879 31.408C75.7239 31.144 75.5919 30.826 75.5919 30.454C75.5919 30.07 75.7239 29.752 75.9879 29.5C76.2639 29.236 76.6119 29.104 77.0319 29.104C77.4519 29.104 77.7939 29.23 78.0579 29.482C78.3339 29.722 78.4719 30.028 78.4719 30.4C78.4719 30.796 78.3399 31.132 78.0759 31.408C77.8119 31.672 77.4639 31.804 77.0319 31.804ZM84.719 43.126C83.663 43.126 82.847 42.856 82.271 42.316C81.695 41.764 81.407 40.954 81.407 39.886V31.264H83.657V39.832C83.657 40.288 83.771 40.642 83.999 40.894C84.239 41.146 84.569 41.272 84.989 41.272C85.493 41.272 85.913 41.14 86.249 40.876L86.879 42.478C86.615 42.694 86.291 42.856 85.907 42.964C85.523 43.072 85.127 43.126 84.719 43.126ZM79.823 35.26V33.46H86.231V35.26H79.823ZM98.0245 43.126C97.0405 43.126 96.1645 42.916 95.3965 42.496C94.6285 42.064 94.0225 41.476 93.5785 40.732C93.1345 39.988 92.9125 39.142 92.9125 38.194C92.9125 37.234 93.1345 36.388 93.5785 35.656C94.0225 34.912 94.6285 34.33 95.3965 33.91C96.1645 33.49 97.0405 33.28 98.0245 33.28C99.0205 33.28 99.9025 33.49 100.671 33.91C101.451 34.33 102.057 34.906 102.489 35.638C102.933 36.37 103.155 37.222 103.155 38.194C103.155 39.142 102.933 39.988 102.489 40.732C102.057 41.476 101.451 42.064 100.671 42.496C99.9025 42.916 99.0205 43.126 98.0245 43.126ZM98.0245 41.2C98.5765 41.2 99.0685 41.08 99.5005 40.84C99.9325 40.6 100.269 40.252 100.509 39.796C100.761 39.34 100.887 38.806 100.887 38.194C100.887 37.57 100.761 37.036 100.509 36.592C100.269 36.136 99.9325 35.788 99.5005 35.548C99.0685 35.308 98.5825 35.188 98.0425 35.188C97.4905 35.188 96.9985 35.308 96.5665 35.548C96.1465 35.788 95.8105 36.136 95.5585 36.592C95.3065 37.036 95.1805 37.57 95.1805 38.194C95.1805 38.806 95.3065 39.34 95.5585 39.796C95.8105 40.252 96.1465 40.6 96.5665 40.84C96.9985 41.08 97.4845 41.2 98.0245 41.2ZM109.374 43.126C108.558 43.126 107.838 42.976 107.214 42.676C106.59 42.364 106.104 41.896 105.756 41.272C105.408 40.636 105.234 39.838 105.234 38.878V33.388H107.484V38.572C107.484 39.436 107.676 40.084 108.06 40.516C108.456 40.936 109.014 41.146 109.734 41.146C110.262 41.146 110.718 41.038 111.102 40.822C111.498 40.606 111.804 40.282 112.02 39.85C112.248 39.418 112.362 38.884 112.362 38.248V33.388H114.612V43H112.47V40.408L112.848 41.2C112.524 41.824 112.05 42.304 111.426 42.64C110.802 42.964 110.118 43.126 109.374 43.126ZM117.558 43V33.388H119.7V36.034L119.448 35.26C119.736 34.612 120.186 34.12 120.798 33.784C121.422 33.448 122.196 33.28 123.12 33.28V35.422C123.024 35.398 122.934 35.386 122.85 35.386C122.766 35.374 122.682 35.368 122.598 35.368C121.746 35.368 121.068 35.62 120.564 36.124C120.06 36.616 119.808 37.354 119.808 38.338V43H117.558ZM132.215 43L128.687 33.388H130.811L133.835 41.866H132.827L135.995 33.388H137.885L140.963 41.866H139.973L143.087 33.388H145.085L141.539 43H139.379L136.571 35.494H137.237L134.375 43H132.215ZM150.887 43.126C149.819 43.126 148.883 42.916 148.079 42.496C147.287 42.064 146.669 41.476 146.225 40.732C145.793 39.988 145.577 39.142 145.577 38.194C145.577 37.234 145.787 36.388 146.207 35.656C146.639 34.912 147.227 34.33 147.971 33.91C148.727 33.49 149.585 33.28 150.545 33.28C151.481 33.28 152.315 33.484 153.047 33.892C153.779 34.3 154.355 34.876 154.775 35.62C155.195 36.364 155.405 37.24 155.405 38.248C155.405 38.344 155.399 38.452 155.387 38.572C155.387 38.692 155.381 38.806 155.369 38.914H147.359V37.42H154.181L153.299 37.888C153.311 37.336 153.197 36.85 152.957 36.43C152.717 36.01 152.387 35.68 151.967 35.44C151.559 35.2 151.085 35.08 150.545 35.08C149.993 35.08 149.507 35.2 149.087 35.44C148.679 35.68 148.355 36.016 148.115 36.448C147.887 36.868 147.773 37.366 147.773 37.942V38.302C147.773 38.878 147.905 39.388 148.169 39.832C148.433 40.276 148.805 40.618 149.285 40.858C149.765 41.098 150.317 41.218 150.941 41.218C151.481 41.218 151.967 41.134 152.399 40.966C152.831 40.798 153.215 40.534 153.551 40.174L154.757 41.56C154.325 42.064 153.779 42.454 153.119 42.73C152.471 42.994 151.727 43.126 150.887 43.126ZM162.894 43.126C162.078 43.126 161.352 42.946 160.716 42.586C160.08 42.226 159.576 41.686 159.204 40.966C158.844 40.234 158.664 39.31 158.664 38.194C158.664 37.066 158.85 36.142 159.222 35.422C159.606 34.702 160.116 34.168 160.752 33.82C161.4 33.46 162.114 33.28 162.894 33.28C163.842 33.28 164.676 33.484 165.396 33.892C166.128 34.3 166.704 34.87 167.124 35.602C167.556 36.334 167.772 37.198 167.772 38.194C167.772 39.19 167.556 40.054 167.124 40.786C166.704 41.518 166.128 42.094 165.396 42.514C164.676 42.922 163.842 43.126 162.894 43.126ZM157.566 43V29.644H159.816V35.62L159.636 38.176L159.708 40.732V43H157.566ZM162.642 41.2C163.182 41.2 163.662 41.08 164.082 40.84C164.514 40.6 164.856 40.252 165.108 39.796C165.36 39.34 165.486 38.806 165.486 38.194C165.486 37.57 165.36 37.036 165.108 36.592C164.856 36.136 164.514 35.788 164.082 35.548C163.662 35.308 163.182 35.188 162.642 35.188C162.102 35.188 161.616 35.308 161.184 35.548C160.752 35.788 160.41 36.136 160.158 36.592C159.906 37.036 159.78 37.57 159.78 38.194C159.78 38.806 159.906 39.34 160.158 39.796C160.41 40.252 160.752 40.6 161.184 40.84C161.616 41.08 162.102 41.2 162.642 41.2ZM172.876 43.126C172.072 43.126 171.298 43.024 170.554 42.82C169.822 42.604 169.24 42.346 168.808 42.046L169.672 40.336C170.104 40.612 170.62 40.84 171.22 41.02C171.82 41.2 172.42 41.29 173.02 41.29C173.728 41.29 174.238 41.194 174.55 41.002C174.874 40.81 175.036 40.552 175.036 40.228C175.036 39.964 174.928 39.766 174.712 39.634C174.496 39.49 174.214 39.382 173.866 39.31C173.518 39.238 173.128 39.172 172.696 39.112C172.276 39.052 171.85 38.974 171.418 38.878C170.998 38.77 170.614 38.62 170.266 38.428C169.918 38.224 169.636 37.954 169.42 37.618C169.204 37.282 169.096 36.838 169.096 36.286C169.096 35.674 169.27 35.146 169.618 34.702C169.966 34.246 170.452 33.898 171.076 33.658C171.712 33.406 172.462 33.28 173.326 33.28C173.974 33.28 174.628 33.352 175.288 33.496C175.948 33.64 176.494 33.844 176.926 34.108L176.062 35.818C175.606 35.542 175.144 35.356 174.676 35.26C174.22 35.152 173.764 35.098 173.308 35.098C172.624 35.098 172.114 35.2 171.778 35.404C171.454 35.608 171.292 35.866 171.292 36.178C171.292 36.466 171.4 36.682 171.616 36.826C171.832 36.97 172.114 37.084 172.462 37.168C172.81 37.252 173.194 37.324 173.614 37.384C174.046 37.432 174.472 37.51 174.892 37.618C175.312 37.726 175.696 37.876 176.044 38.068C176.404 38.248 176.692 38.506 176.908 38.842C177.124 39.178 177.232 39.616 177.232 40.156C177.232 40.756 177.052 41.278 176.692 41.722C176.344 42.166 175.846 42.514 175.198 42.766C174.55 43.006 173.776 43.126 172.876 43.126ZM179.169 43V33.388H181.419V43H179.169ZM180.303 31.804C179.883 31.804 179.535 31.672 179.259 31.408C178.995 31.144 178.863 30.826 178.863 30.454C178.863 30.07 178.995 29.752 179.259 29.5C179.535 29.236 179.883 29.104 180.303 29.104C180.723 29.104 181.065 29.23 181.329 29.482C181.605 29.722 181.743 30.028 181.743 30.4C181.743 30.796 181.611 31.132 181.347 31.408C181.083 31.672 180.735 31.804 180.303 31.804ZM187.99 43.126C186.934 43.126 186.118 42.856 185.542 42.316C184.966 41.764 184.678 40.954 184.678 39.886V31.264H186.928V39.832C186.928 40.288 187.042 40.642 187.27 40.894C187.51 41.146 187.84 41.272 188.26 41.272C188.764 41.272 189.184 41.14 189.52 40.876L190.15 42.478C189.886 42.694 189.562 42.856 189.178 42.964C188.794 43.072 188.398 43.126 187.99 43.126ZM183.094 35.26V33.46H189.502V35.26H183.094ZM196.203 43.126C195.135 43.126 194.199 42.916 193.395 42.496C192.603 42.064 191.985 41.476 191.541 40.732C191.109 39.988 190.893 39.142 190.893 38.194C190.893 37.234 191.103 36.388 191.523 35.656C191.955 34.912 192.543 34.33 193.287 33.91C194.043 33.49 194.901 33.28 195.861 33.28C196.797 33.28 197.631 33.484 198.363 33.892C199.095 34.3 199.671 34.876 200.091 35.62C200.511 36.364 200.721 37.24 200.721 38.248C200.721 38.344 200.715 38.452 200.703 38.572C200.703 38.692 200.697 38.806 200.685 38.914H192.675V37.42H199.497L198.615 37.888C198.627 37.336 198.513 36.85 198.273 36.43C198.033 36.01 197.703 35.68 197.283 35.44C196.875 35.2 196.401 35.08 195.861 35.08C195.309 35.08 194.823 35.2 194.403 35.44C193.995 35.68 193.671 36.016 193.431 36.448C193.203 36.868 193.089 37.366 193.089 37.942V38.302C193.089 38.878 193.221 39.388 193.485 39.832C193.749 40.276 194.121 40.618 194.601 40.858C195.081 41.098 195.633 41.218 196.257 41.218C196.797 41.218 197.283 41.134 197.715 40.966C198.147 40.798 198.531 40.534 198.867 40.174L200.073 41.56C199.641 42.064 199.095 42.454 198.435 42.73C197.787 42.994 197.043 43.126 196.203 43.126Z" fill="white"/>
</g>
<defs>
<filter id="filter0_d_1_19" x="0" y="0" width="252" height="82" filterUnits="userSpaceOnUse" color-interpolation-filters="sRGB">
<feFlood flood-opacity="0" result="BackgroundImageFix"/>
<feColorMatrix in="SourceAlpha" type="matrix" values="0 0 0 0 0 0 0 0 0 0 0 0 0 0 0 0 0 0 127 0" result="hardAlpha"/>
<feOffset dy="4"/>
<feGaussianBlur stdDeviation="7.5"/>
<feComposite in2="hardAlpha" operator="out"/>
<feColorMatrix type="matrix" values="0 0 0 0 0.179167 0 0 0 0 0.179167 0 0 0 0 0.179167 0 0 0 0.15 0"/>
<feBlend mode="normal" in2="BackgroundImageFix" result="effect1_dropShadow_1_19"/>
<feBlend mode="normal" in="SourceGraphic" in2="effect1_dropShadow_1_19" result="shape"/>
</filter>
</defs>
</svg>
